<svg width="42" height="42" viewBox="0 0 42 42" fill="none" xmlns="http://www.w3.org/2000/svg">
<g clip-path="url(#clip0_1046_493)">
<path d="M20.8058 4.13533C26.3648 4.13533 27.0231 4.15971 29.2093 4.25724C31.2411 4.34664 32.3383 4.68799 33.0698 4.97244C34.0369 5.34629 34.7359 5.80142 35.4592 6.52474C36.1906 7.2562 36.6376 7.94701 37.0115 8.91416C37.2959 9.64561 37.6373 10.7509 37.7267 12.7746C37.8242 14.969 37.8486 15.6273 37.8486 21.1782C37.8486 26.7372 37.8242 27.3955 37.7267 29.5817C37.6373 31.6136 37.2959 32.7107 37.0115 33.4422C36.6376 34.4093 36.1825 35.1083 35.4592 35.8316C34.7277 36.5631 34.0369 37.0101 33.0698 37.3839C32.3383 37.6684 31.233 38.0097 29.2093 38.0991C27.015 38.1966 26.3567 38.221 20.8058 38.221C15.2467 38.221 14.5884 38.1966 12.4022 38.0991C10.3704 38.0097 9.27319 37.6684 8.54174 37.3839C7.5746 37.0101 6.87565 36.5549 6.15233 35.8316C5.42087 35.1001 4.97388 34.4093 4.60002 33.4422C4.31557 32.7107 3.97422 31.6054 3.88482 29.5817C3.7873 27.3874 3.76292 26.7291 3.76292 21.1782C3.76292 15.6191 3.7873 14.9608 3.88482 12.7746C3.97422 10.7428 4.31557 9.64561 4.60002 8.91416C4.97388 7.94701 5.429 7.24807 6.15233 6.52474C6.88378 5.79329 7.5746 5.34629 8.54174 4.97244C9.27319 4.68799 10.3785 4.34664 12.4022 4.25724C14.5884 4.15971 15.2467 4.13533 20.8058 4.13533ZM20.8058 0.388672C15.1573 0.388672 14.4502 0.413054 12.2315 0.510581C10.0209 0.608108 8.5011 0.965706 7.18449 1.47772C5.81098 2.01412 4.64879 2.72119 3.49472 3.88339C2.33252 5.03746 1.62545 6.19965 1.08905 7.56503C0.577035 8.88977 0.219436 10.4014 0.121909 12.6121C0.0243817 14.8389 0 15.546 0 21.1944C0 26.8429 0.0243817 27.5499 0.121909 29.7687C0.219436 31.9793 0.577035 33.4991 1.08905 34.8157C1.62545 36.1892 2.33252 37.3514 3.49472 38.5055C4.64879 39.6595 5.81098 40.3747 7.17636 40.903C8.5011 41.415 10.0128 41.7726 12.2234 41.8701C14.4421 41.9677 15.1492 41.9921 20.7976 41.9921C26.4461 41.9921 27.1531 41.9677 29.3719 41.8701C31.5825 41.7726 33.1023 41.415 34.4189 40.903C35.7843 40.3747 36.9465 39.6595 38.1005 38.5055C39.2546 37.3514 39.9698 36.1892 40.4981 34.8238C41.0101 33.4991 41.3677 31.9874 41.4652 29.7768C41.5627 27.5581 41.5871 26.851 41.5871 21.2026C41.5871 15.5541 41.5627 14.847 41.4652 12.6283C41.3677 10.4177 41.0101 8.8979 40.4981 7.58129C39.9861 6.19965 39.279 5.03746 38.1168 3.88339C36.9627 2.72932 35.8005 2.01412 34.4352 1.48585C33.1104 0.973834 31.5987 0.616235 29.3881 0.518708C27.1613 0.413054 26.4542 0.388672 20.8058 0.388672Z" fill="white"/>
<path d="M20.8057 10.5078C14.9054 10.5078 10.1184 15.2948 10.1184 21.1951C10.1184 27.0955 14.9054 31.8825 20.8057 31.8825C26.7061 31.8825 31.4931 27.0955 31.4931 21.1951C31.4931 15.2948 26.7061 10.5078 20.8057 10.5078ZM20.8057 28.1277C16.9778 28.1277 13.8732 25.0231 13.8732 21.1951C13.8732 17.3672 16.9778 14.2626 20.8057 14.2626C24.6337 14.2626 27.7383 17.3672 27.7383 21.1951C27.7383 25.0231 24.6337 28.1277 20.8057 28.1277Z" fill="white"/>
<path d="M34.4108 10.0849C34.4108 11.4665 33.2892 12.58 31.9157 12.58C30.5341 12.58 29.4207 11.4584 29.4207 10.0849C29.4207 8.70328 30.5422 7.58984 31.9157 7.58984C33.2892 7.58984 34.4108 8.71141 34.4108 10.0849Z" fill="white"/>
</g>
<defs>
<clipPath id="clip0_1046_493">
<rect width="41.6115" height="41.6115" fill="white" transform="translate(0 0.388672)"/>
</clipPath>
</defs>
</svg>
