<svg width="24" height="24" viewBox="0 0 24 24" fill="none" xmlns="http://www.w3.org/2000/svg">
<path fill-rule="evenodd" clip-rule="evenodd" d="M18.2858 11.0038C18.3719 11.5494 17.9159 12 17.3636 12H17.2424C16.6901 12 16.2545 11.5459 16.1256 11.0089C15.7546 9.4639 14.5361 8.2454 12.9911 7.8744C12.4541 7.74545 12 7.30986 12 6.75758V6.63636C12 6.08408 12.4506 5.62811 12.9962 5.71419C15.7094 6.14233 17.8577 8.2906 18.2858 11.0038Z" fill="#505050"/>
<path fill-rule="evenodd" clip-rule="evenodd" d="M21.9505 11.0014C22.0053 11.551 21.5523 12 21 12V12C20.4477 12 20.0066 11.55 19.9381 11.002C19.4862 7.38721 16.6128 4.51381 12.998 4.06194C12.45 3.99343 12 3.55228 12 3V3C12 2.44772 12.449 1.99474 12.9986 2.04947C17.717 2.5194 21.4806 6.28297 21.9505 11.0014Z" fill="#505050"/>
<path fill-rule="evenodd" clip-rule="evenodd" d="M12.8717 10.4043C12.4314 10.1631 12 10.5888 12 11.0909V11.0909C12 11.593 12.407 12 12.9091 12V12C13.4112 12 13.8369 11.5686 13.5957 11.1283C13.4287 10.8233 13.1767 10.5713 12.8717 10.4043Z" fill="#505050"/>
<path fill-rule="evenodd" clip-rule="evenodd" d="M5 5.00001C4.44772 5.00001 4 5.44772 4 6.00001V10C4 15.514 8.486 20 14 20H18.0008C18.5531 20 19.0009 19.5521 19.0007 18.9998L19.0002 16.9998C19.0001 16.4476 18.5524 16 18.0002 16H16C15.4477 16 15 16.4477 15 17V17C15 17.552 14.552 18 14 18C9.512 18 6.072 14.567 6 10.016C5.996 9.74801 6.099 9.49001 6.287 9.29801C6.475 9.10701 6.732 9.00001 7 9.00001V9.00001C7.55228 9.00001 8 8.55229 8 8.00001V6.00001C8 5.44772 7.55228 5.00001 7 5.00001H5ZM19 22H14C7.383 22 2 16.617 2 10V5.00001C2 3.89701 2.897 3.00001 4 3.00001H8C9.103 3.00001 10 3.89701 10 5.00001V9.00001C10 9.67618 9.66262 10.2752 9.14745 10.6374C8.65608 10.9828 8.17418 11.5253 8.37786 12.0904C8.98116 13.7642 10.2619 15.0517 11.9116 15.6435C12.4755 15.8457 13.012 15.3611 13.352 14.8678C13.713 14.344 14.3169 14 15 14H19C20.103 14 21 14.897 21 16V20C21 21.103 20.103 22 19 22Z" fill="#505050"/>
</svg>
