<svg width="43" height="42" viewBox="0 0 43 42" fill="none" xmlns="http://www.w3.org/2000/svg">
<path d="M0.902832 42.0002L3.82777 31.3147C2.02287 28.1869 1.07448 24.6412 1.07621 21.0054C1.08141 9.63856 10.3313 0.388672 21.6964 0.388672C27.2117 0.390406 32.3889 2.5386 36.283 6.43621C40.1754 10.3338 42.3184 15.5145 42.3167 21.0245C42.3115 32.3931 33.0616 41.643 21.6964 41.643C18.2462 41.6413 14.8462 40.7761 11.8345 39.1325L0.902832 42.0002ZM12.3408 35.3996C15.2467 37.1247 18.0208 38.1581 21.6895 38.1598C31.1353 38.1598 38.83 30.4721 38.8352 21.021C38.8387 11.551 31.1804 3.87364 21.7034 3.87017C12.2506 3.87017 4.56118 11.5579 4.55771 21.0072C4.55598 24.8649 5.68642 27.7534 7.58495 30.7755L5.85287 37.1004L12.3408 35.3996ZM32.0837 25.926C31.9554 25.711 31.6121 25.5827 31.0955 25.3244C30.5805 25.066 28.0474 23.8194 27.5741 23.6478C27.1025 23.4761 26.7592 23.3894 26.4142 23.9061C26.0709 24.4211 25.0826 25.5827 24.7826 25.926C24.4827 26.2693 24.181 26.3126 23.6661 26.0543C23.1511 25.796 21.4901 25.2533 19.5222 23.4969C17.9913 22.1307 16.9562 20.4437 16.6563 19.927C16.3563 19.4121 16.625 19.1329 16.8816 18.8763C17.114 18.6457 17.3966 18.2747 17.6549 17.973C17.9167 17.6748 18.0017 17.4598 18.1751 17.1148C18.3467 16.7715 18.2618 16.4698 18.1317 16.2114C18.0017 15.9548 16.9718 13.4183 16.5436 12.3867C16.124 11.3828 15.6992 11.518 15.3836 11.5024L14.3954 11.4851C14.0521 11.4851 13.4938 11.6134 13.0222 12.1301C12.5506 12.6467 11.219 13.8916 11.219 16.4282C11.219 18.9647 13.0655 21.4146 13.3221 21.7579C13.5805 22.1012 16.9545 27.3061 22.123 29.5375C23.3522 30.0681 24.3128 30.3854 25.06 30.6229C26.2945 31.0147 27.418 30.9593 28.3057 30.8275C29.2958 30.6801 31.3538 29.5809 31.7838 28.3776C32.2138 27.1726 32.2138 26.141 32.0837 25.926Z" fill="white"/>
</svg>
