<svg width="24" height="24" viewBox="0 0 24 24" fill="none" xmlns="http://www.w3.org/2000/svg">
<path fill-rule="evenodd" clip-rule="evenodd" d="M10.1819 14.7413V9.25891C11.9647 10.1784 13.6938 11.0695 15.4973 11.9987C13.7048 12.9237 11.9802 13.8135 10.1819 14.7413ZM21.8964 8.41956C21.8634 7.59334 21.6481 6.78232 21.0771 6.11637C20.3749 5.29774 19.3959 5.22521 18.4311 5.1879C16.2862 5.1057 14.1393 5.06908 11.4971 5C9.57272 5.07599 7.15299 5.15198 4.73714 5.27356C3.64755 5.32883 2.82825 5.87181 2.46419 6.91495C2.27343 7.46416 2.13958 8.05619 2.11501 8.6344C2.03806 10.4499 1.98374 12.2681 2.00443 14.0843C2.01413 14.9678 2.15445 15.8611 2.33486 16.7294C2.56507 17.8361 3.30289 18.5152 4.4358 18.6962C5.14905 18.8102 5.87587 18.8696 6.59817 18.8952C10.7289 19.0416 14.859 19.052 18.9885 18.8143C20.3969 18.7335 21.3778 18.0254 21.6998 16.67C21.8712 15.946 21.9941 15.191 21.9979 14.4497C22.0089 12.4394 21.976 10.4278 21.8964 8.41956Z" fill="white"/>
</svg>
