<?xml version="1.0" encoding="utf-8"?><svg xmlns="http://www.w3.org/2000/svg" xmlns:xlink="http://www.w3.org/1999/xlink"><symbol viewBox="0 0 42 42" id="inst" xmlns="http://www.w3.org/2000/svg">
    <g clip-path="url(#aclip0_1046_493)">
        <path d="M20.8058 4.13533C26.3648 4.13533 27.0231 4.15971 29.2093 4.25724C31.2411 4.34664 32.3383 4.68799 33.0698 4.97244C34.0369 5.34629 34.7359 5.80142 35.4592 6.52474C36.1906 7.2562 36.6376 7.94701 37.0115 8.91416C37.2959 9.64561 37.6373 10.7509 37.7267 12.7746C37.8242 14.969 37.8486 15.6273 37.8486 21.1782C37.8486 26.7372 37.8242 27.3955 37.7267 29.5817C37.6373 31.6136 37.2959 32.7107 37.0115 33.4422C36.6376 34.4093 36.1825 35.1083 35.4592 35.8316C34.7277 36.5631 34.0369 37.0101 33.0698 37.3839C32.3383 37.6684 31.233 38.0097 29.2093 38.0991C27.015 38.1966 26.3567 38.221 20.8058 38.221C15.2467 38.221 14.5884 38.1966 12.4022 38.0991C10.3704 38.0097 9.27319 37.6684 8.54174 37.3839C7.5746 37.0101 6.87565 36.5549 6.15233 35.8316C5.42087 35.1001 4.97388 34.4093 4.60002 33.4422C4.31557 32.7107 3.97422 31.6054 3.88482 29.5817C3.7873 27.3874 3.76292 26.7291 3.76292 21.1782C3.76292 15.6191 3.7873 14.9608 3.88482 12.7746C3.97422 10.7428 4.31557 9.64561 4.60002 8.91416C4.97388 7.94701 5.429 7.24807 6.15233 6.52474C6.88378 5.79329 7.5746 5.34629 8.54174 4.97244C9.27319 4.68799 10.3785 4.34664 12.4022 4.25724C14.5884 4.15971 15.2467 4.13533 20.8058 4.13533ZM20.8058 0.388672C15.1573 0.388672 14.4502 0.413054 12.2315 0.510581C10.0209 0.608108 8.5011 0.965706 7.18449 1.47772C5.81098 2.01412 4.64879 2.72119 3.49472 3.88339C2.33252 5.03746 1.62545 6.19965 1.08905 7.56503C0.577035 8.88977 0.219436 10.4014 0.121909 12.6121C0.0243817 14.8389 0 15.546 0 21.1944C0 26.8429 0.0243817 27.5499 0.121909 29.7687C0.219436 31.9793 0.577035 33.4991 1.08905 34.8157C1.62545 36.1892 2.33252 37.3514 3.49472 38.5055C4.64879 39.6595 5.81098 40.3747 7.17636 40.903C8.5011 41.415 10.0128 41.7726 12.2234 41.8701C14.4421 41.9677 15.1492 41.9921 20.7976 41.9921C26.4461 41.9921 27.1531 41.9677 29.3719 41.8701C31.5825 41.7726 33.1023 41.415 34.4189 40.903C35.7843 40.3747 36.9465 39.6595 38.1005 38.5055C39.2546 37.3514 39.9698 36.1892 40.4981 34.8238C41.0101 33.4991 41.3677 31.9874 41.4652 29.7768C41.5627 27.5581 41.5871 26.851 41.5871 21.2026C41.5871 15.5541 41.5627 14.847 41.4652 12.6283C41.3677 10.4177 41.0101 8.8979 40.4981 7.58129C39.9861 6.19965 39.279 5.03746 38.1168 3.88339C36.9627 2.72932 35.8005 2.01412 34.4352 1.48585C33.1104 0.973834 31.5987 0.616235 29.3881 0.518708C27.1613 0.413054 26.4542 0.388672 20.8058 0.388672Z"/>
        <path d="M20.8057 10.5078C14.9054 10.5078 10.1184 15.2948 10.1184 21.1951C10.1184 27.0955 14.9054 31.8825 20.8057 31.8825C26.7061 31.8825 31.4931 27.0955 31.4931 21.1951C31.4931 15.2948 26.7061 10.5078 20.8057 10.5078ZM20.8057 28.1277C16.9778 28.1277 13.8732 25.0231 13.8732 21.1951C13.8732 17.3672 16.9778 14.2626 20.8057 14.2626C24.6337 14.2626 27.7383 17.3672 27.7383 21.1951C27.7383 25.0231 24.6337 28.1277 20.8057 28.1277Z"/>
        <path d="M34.4108 10.0849C34.4108 11.4665 33.2892 12.58 31.9157 12.58C30.5341 12.58 29.4207 11.4584 29.4207 10.0849C29.4207 8.70328 30.5422 7.58984 31.9157 7.58984C33.2892 7.58984 34.4108 8.71141 34.4108 10.0849Z"/>
    </g>
    <defs>
        <clipPath id="aclip0_1046_493">
            <rect width="41.6115" height="41.6115" transform="translate(0 0.388672)"/>
        </clipPath>
    </defs>
</symbol><symbol viewBox="0 0 261 16" id="long-arrow-right" xmlns="http://www.w3.org/2000/svg">
    <path d="M260.707 8.70711C261.098 8.31658 261.098 7.68342 260.707 7.29289L254.343 0.928932C253.953 0.538408 253.319 0.538408 252.929 0.928932C252.538 1.31946 252.538 1.95262 252.929 2.34315L258.586 8L252.929 13.6569C252.538 14.0474 252.538 14.6805 252.929 15.0711C253.319 15.4616 253.953 15.4616 254.343 15.0711L260.707 8.70711ZM0 9H260V7H0V9Z"/>
</symbol><symbol viewBox="0 0 24 24" id="menu-btn" xmlns="http://www.w3.org/2000/svg">
    <path fill-rule="evenodd" clip-rule="evenodd" d="M22 12.0001C22 11.3864 21.5025 10.8889 20.8889 10.8889H3.11111C2.49746 10.8889 2 11.3864 2 12.0001V12.0001C2 12.6137 2.49746 13.1112 3.11111 13.1112H20.8889C21.5025 13.1112 22 12.6137 22 12.0001V12.0001Z"/>
    <path fill-rule="evenodd" clip-rule="evenodd" d="M22 18.8892C22 18.2756 21.5025 17.7781 20.8889 17.7781H3.11111C2.49746 17.7781 2 18.2756 2 18.8892V18.8892C2 19.5029 2.49746 20.0003 3.11111 20.0003H20.8889C21.5025 20.0003 22 19.5029 22 18.8892V18.8892Z"/>
    <path fill-rule="evenodd" clip-rule="evenodd" d="M22 5.11114C22 4.49749 21.5025 4.00003 20.8889 4.00003H3.11111C2.49746 4.00003 2 4.49749 2 5.11114V5.11114C2 5.72479 2.49746 6.22225 3.11111 6.22225H20.8889C21.5025 6.22225 22 5.72479 22 5.11114V5.11114Z"/>
</symbol><symbol viewBox="0 0 24 24" id="phone-btn" xmlns="http://www.w3.org/2000/svg">
    <path fill-rule="evenodd" clip-rule="evenodd" d="M18.2858 11.0038C18.3719 11.5494 17.9159 12 17.3636 12H17.2424C16.6901 12 16.2545 11.5459 16.1256 11.0089C15.7546 9.4639 14.5361 8.2454 12.9911 7.8744C12.4541 7.74545 12 7.30986 12 6.75758V6.63636C12 6.08408 12.4506 5.62811 12.9962 5.71419C15.7094 6.14233 17.8577 8.2906 18.2858 11.0038Z"/>
    <path fill-rule="evenodd" clip-rule="evenodd" d="M21.9505 11.0014C22.0053 11.551 21.5523 12 21 12V12C20.4477 12 20.0066 11.55 19.9381 11.002C19.4862 7.38721 16.6128 4.51381 12.998 4.06194C12.45 3.99343 12 3.55228 12 3V3C12 2.44772 12.449 1.99474 12.9986 2.04947C17.717 2.5194 21.4806 6.28297 21.9505 11.0014Z"/>
    <path fill-rule="evenodd" clip-rule="evenodd" d="M12.8717 10.4043C12.4314 10.1631 12 10.5888 12 11.0909V11.0909C12 11.593 12.407 12 12.9091 12V12C13.4112 12 13.8369 11.5686 13.5957 11.1283C13.4287 10.8233 13.1767 10.5713 12.8717 10.4043Z"/>
    <path fill-rule="evenodd" clip-rule="evenodd" d="M5 5.00001C4.44772 5.00001 4 5.44772 4 6.00001V10C4 15.514 8.486 20 14 20H18.0008C18.5531 20 19.0009 19.5521 19.0007 18.9998L19.0002 16.9998C19.0001 16.4476 18.5524 16 18.0002 16H16C15.4477 16 15 16.4477 15 17V17C15 17.552 14.552 18 14 18C9.512 18 6.072 14.567 6 10.016C5.996 9.74801 6.099 9.49001 6.287 9.29801C6.475 9.10701 6.732 9.00001 7 9.00001V9.00001C7.55228 9.00001 8 8.55229 8 8.00001V6.00001C8 5.44772 7.55228 5.00001 7 5.00001H5ZM19 22H14C7.383 22 2 16.617 2 10V5.00001C2 3.89701 2.897 3.00001 4 3.00001H8C9.103 3.00001 10 3.89701 10 5.00001V9.00001C10 9.67618 9.66262 10.2752 9.14745 10.6374C8.65608 10.9828 8.17418 11.5253 8.37786 12.0904C8.98116 13.7642 10.2619 15.0517 11.9116 15.6435C12.4755 15.8457 13.012 15.3611 13.352 14.8678C13.713 14.344 14.3169 14 15 14H19C20.103 14 21 14.897 21 16V20C21 21.103 20.103 22 19 22Z"/>
</symbol><symbol viewBox="0 0 49 49" id="pinterest" xmlns="http://www.w3.org/2000/svg">
    <path d="M17.3378 39.1823C17.3847 38.4963 17.4827 37.8123 17.6297 37.1386C17.7583 36.5363 18.1483 34.8315 18.72 32.3611L18.7343 32.2998L19.5244 28.8943C19.6857 28.2002 19.8102 27.6612 19.8939 27.4815C19.4975 26.5649 19.2998 25.5747 19.3141 24.5762C19.3141 21.8465 20.8576 19.7313 22.8584 19.7313C23.5934 19.7191 24.2958 20.0376 24.7817 20.6011C25.2676 21.1646 25.4922 21.9139 25.3983 22.6346C25.3983 23.5594 25.2247 24.2638 24.4734 26.7894C24.357 27.1768 24.2447 27.5654 24.1365 27.9552C24.0375 28.3082 23.9469 28.6635 23.865 29.0209C23.669 29.809 23.8486 30.6481 24.3488 31.2769C24.5914 31.5857 24.9046 31.8316 25.262 31.9939C25.6195 32.1563 26.0107 32.2304 26.4028 32.21C29.4489 32.21 31.7111 28.1573 31.7111 22.9245C31.7111 18.9024 29.0773 16.2401 24.7041 16.2401C23.6093 16.1994 22.518 16.3863 21.4992 16.789C20.4804 17.1918 19.5563 17.8016 18.7853 18.5798C17.9977 19.3751 17.3764 20.3193 16.9575 21.3572C16.5387 22.3951 16.3306 23.506 16.3455 24.6252C16.2947 25.8313 16.6642 27.0177 17.3908 27.9817C17.7604 28.2675 17.9013 28.7637 17.7481 29.1863C17.6644 29.5293 17.4623 30.3133 17.3868 30.5746C17.3657 30.7028 17.315 30.8244 17.2388 30.9296C17.1626 31.0348 17.063 31.1209 16.9478 31.181C16.836 31.2393 16.712 31.2701 16.5859 31.2708C16.4598 31.2715 16.3354 31.2421 16.223 31.1851C13.8547 30.2071 12.5562 27.555 12.5562 24.1617C12.5562 18.0674 17.642 12.7611 25.1982 12.7611C31.5988 12.7611 36.3885 17.5161 36.3885 23.2552C36.3885 30.4664 32.444 35.7176 26.8131 35.7176C26.0122 35.7408 25.217 35.5757 24.4915 35.2357C23.766 34.8956 23.1304 34.39 22.6359 33.7596L22.5481 34.121L22.1255 35.8605L22.1214 35.8768C21.8233 37.1018 21.615 37.9532 21.5334 38.2717C21.317 38.9965 21.0434 39.707 20.7167 40.395C24.7792 41.3632 29.0583 40.7385 32.6744 38.6492C36.2905 36.5599 38.969 33.1648 40.1592 29.1617C41.3494 25.1586 40.9611 20.8516 39.0739 17.126C37.1868 13.4005 33.9442 10.5393 30.0126 9.13057C26.0811 7.72187 21.7593 7.87267 17.9355 9.55199C14.1117 11.2313 11.0765 14.3115 9.45358 18.1596C7.8307 22.0077 7.74348 26.3312 9.20986 30.2416C10.6762 34.152 13.5848 37.3501 17.3378 39.1823ZM24.4999 44.9173C13.2238 44.9173 4.08325 35.7768 4.08325 24.5007C4.08325 13.2245 13.2238 4.08398 24.4999 4.08398C35.776 4.08398 44.9166 13.2245 44.9166 24.5007C44.9166 35.7768 35.776 44.9173 24.4999 44.9173Z"/>
</symbol><symbol viewBox="0 0 18 18" id="right-arrow" xmlns="http://www.w3.org/2000/svg">
    <path fill-rule="evenodd" clip-rule="evenodd" d="M11.0621 14.4441C11.3826 14.7501 11.8913 14.7356 12.1939 14.4118L16.6122 9.68269C16.9712 9.29838 16.9712 8.70162 16.6122 8.31731L12.1939 3.58821C11.8913 3.26439 11.3826 3.24985 11.0621 3.55588V3.55588C10.7495 3.85435 10.732 4.34771 11.0227 4.66753L14.3498 8.32733C14.6966 8.70875 14.6966 9.29125 14.3498 9.67267L11.0227 13.3325C10.732 13.6523 10.7495 14.1457 11.0621 14.4441V14.4441Z"/>
    <path fill-rule="evenodd" clip-rule="evenodd" d="M0.750001 8.9999C0.750001 9.46014 1.1231 9.83323 1.58333 9.83323L14.9167 9.83323C15.3769 9.83323 15.75 9.46014 15.75 8.9999V8.9999C15.75 8.53966 15.3769 8.16657 14.9167 8.16657L1.58333 8.16657C1.1231 8.16657 0.750001 8.53966 0.750001 8.9999V8.9999Z"/>
</symbol><symbol viewBox="0 0 24 24" id="tg" xmlns="http://www.w3.org/2000/svg">
    <path fill-rule="evenodd" clip-rule="evenodd" d="M3.3749 10.8879C8.74359 8.62993 12.3236 7.14133 14.1148 6.42212C19.2292 4.36862 20.2919 4.0119 20.9846 4.00013C21.1369 3.99753 21.4776 4.03398 21.6982 4.20682C21.8845 4.35275 21.9358 4.5499 21.9603 4.68826C21.9848 4.82663 22.0154 5.14183 21.9911 5.38811C21.714 8.1992 20.5147 15.021 19.9046 18.1694C19.6465 19.5017 19.1382 19.9484 18.6461 19.9921C17.5766 20.0871 16.7645 19.3098 15.7287 18.6543C14.1078 17.6287 13.1921 16.9902 11.6188 15.9893C9.80053 14.8327 10.9792 14.1969 12.0155 13.158C12.2866 12.8861 16.9987 8.74867 17.0899 8.37335C17.1013 8.32641 17.1119 8.15143 17.0042 8.05904C16.8965 7.96664 16.7376 7.99824 16.6229 8.02337C16.4604 8.05898 13.871 9.71112 8.85486 12.9798C8.11988 13.467 7.45416 13.7044 6.8577 13.6919C6.20015 13.6782 4.93528 13.333 3.99498 13.038C2.84166 12.676 1.92503 12.4847 2.00485 11.8701C2.04642 11.55 2.5031 11.2226 3.3749 10.8879Z"/>
</symbol><symbol viewBox="0 0 24 24" id="vk" xmlns="http://www.w3.org/2000/svg">
    <path fill-rule="evenodd" clip-rule="evenodd" d="M21.494 18H18.9286C18.091 18 17.9858 17.3743 16.4501 15.8721C15.155 14.5625 14.6006 14.4589 14.2867 14.4589C14.0071 14.4589 13.815 14.674 13.815 15.1743V17.1774C13.815 17.768 13.4834 18 12.1227 18C9.88828 18 7.41037 16.5875 5.52534 13.9762C2.71583 10.0953 2 7.19812 2 6.57241C2 6.2326 2.24472 6 2.57633 6H4.86212C5.45559 6 5.68258 6.17929 5.89183 6.82257C6.93867 9.97052 8.80656 12.7423 9.59155 12.7423C9.88828 12.7423 9.92316 12.4922 9.92316 11.8483V8.64701C9.92316 7.09575 9.06842 6.96613 9.06842 6.39372C9.06842 6.16657 9.2428 6 9.5218 6H13.1866C13.6755 6 13.7452 6.17929 13.7452 6.78684V11.1329C13.7452 11.6284 13.8445 11.8125 14.0591 11.8125C14.3263 11.8125 14.5716 11.6472 15.0539 11.0972C16.5583 9.3963 17.7943 6.69779 17.7943 6.69779C17.9509 6.35798 18.1436 6.12538 18.6668 6.12538H20.9526C21.4071 6.12538 21.5986 6.37615 21.5117 6.82257C21.2493 8.0746 18.6142 11.884 18.6142 11.884C18.37 12.2771 18.2654 12.4922 18.6142 12.8677C18.8589 13.1893 19.6267 13.8865 20.0978 14.5304C21.2493 15.7824 22 16.8376 22 17.4282C22 17.8746 21.7559 18 21.494 18Z"/>
</symbol><symbol viewBox="0 0 43 42" id="wt" xmlns="http://www.w3.org/2000/svg">
    <path d="M0.902832 42.0002L3.82777 31.3147C2.02287 28.1869 1.07448 24.6412 1.07621 21.0054C1.08141 9.63856 10.3313 0.388672 21.6964 0.388672C27.2117 0.390406 32.3889 2.5386 36.283 6.43621C40.1754 10.3338 42.3184 15.5145 42.3167 21.0245C42.3115 32.3931 33.0616 41.643 21.6964 41.643C18.2462 41.6413 14.8462 40.7761 11.8345 39.1325L0.902832 42.0002ZM12.3408 35.3996C15.2467 37.1247 18.0208 38.1581 21.6895 38.1598C31.1353 38.1598 38.83 30.4721 38.8352 21.021C38.8387 11.551 31.1804 3.87364 21.7034 3.87017C12.2506 3.87017 4.56118 11.5579 4.55771 21.0072C4.55598 24.8649 5.68642 27.7534 7.58495 30.7755L5.85287 37.1004L12.3408 35.3996ZM32.0837 25.926C31.9554 25.711 31.6121 25.5827 31.0955 25.3244C30.5805 25.066 28.0474 23.8194 27.5741 23.6478C27.1025 23.4761 26.7592 23.3894 26.4142 23.9061C26.0709 24.4211 25.0826 25.5827 24.7826 25.926C24.4827 26.2693 24.181 26.3126 23.6661 26.0543C23.1511 25.796 21.4901 25.2533 19.5222 23.4969C17.9913 22.1307 16.9562 20.4437 16.6563 19.927C16.3563 19.4121 16.625 19.1329 16.8816 18.8763C17.114 18.6457 17.3966 18.2747 17.6549 17.973C17.9167 17.6748 18.0017 17.4598 18.1751 17.1148C18.3467 16.7715 18.2618 16.4698 18.1317 16.2114C18.0017 15.9548 16.9718 13.4183 16.5436 12.3867C16.124 11.3828 15.6992 11.518 15.3836 11.5024L14.3954 11.4851C14.0521 11.4851 13.4938 11.6134 13.0222 12.1301C12.5506 12.6467 11.219 13.8916 11.219 16.4282C11.219 18.9647 13.0655 21.4146 13.3221 21.7579C13.5805 22.1012 16.9545 27.3061 22.123 29.5375C23.3522 30.0681 24.3128 30.3854 25.06 30.6229C26.2945 31.0147 27.418 30.9593 28.3057 30.8275C29.2958 30.6801 31.3538 29.5809 31.7838 28.3776C32.2138 27.1726 32.2138 26.141 32.0837 25.926Z"/>
</symbol><symbol viewBox="0 0 24 24" id="youtube" xmlns="http://www.w3.org/2000/svg">
    <path fill-rule="evenodd" clip-rule="evenodd" d="M10.1819 14.7413V9.25891C11.9647 10.1784 13.6938 11.0695 15.4973 11.9987C13.7048 12.9237 11.9802 13.8135 10.1819 14.7413ZM21.8964 8.41956C21.8634 7.59334 21.6481 6.78232 21.0771 6.11637C20.3749 5.29774 19.3959 5.22521 18.4311 5.1879C16.2862 5.1057 14.1393 5.06908 11.4971 5C9.57272 5.07599 7.15299 5.15198 4.73714 5.27356C3.64755 5.32883 2.82825 5.87181 2.46419 6.91495C2.27343 7.46416 2.13958 8.05619 2.11501 8.6344C2.03806 10.4499 1.98374 12.2681 2.00443 14.0843C2.01413 14.9678 2.15445 15.8611 2.33486 16.7294C2.56507 17.8361 3.30289 18.5152 4.4358 18.6962C5.14905 18.8102 5.87587 18.8696 6.59817 18.8952C10.7289 19.0416 14.859 19.052 18.9885 18.8143C20.3969 18.7335 21.3778 18.0254 21.6998 16.67C21.8712 15.946 21.9941 15.191 21.9979 14.4497C22.0089 12.4394 21.976 10.4278 21.8964 8.41956Z"/>
</symbol></svg>