<?xml version="1.0" encoding="utf-8"?><svg viewBox="0 0 455 49" xmlns="http://www.w3.org/2000/svg" xmlns:xlink="http://www.w3.org/1999/xlink"><style>:root>svg{display:none}:root>svg:target{display:block}</style><svg fill="none" viewBox="0 0 42 42" id="inst" xmlns="http://www.w3.org/2000/svg"><g clip-path="url(#aa)" fill="#fff"><path d="M20.806 4.135c5.559 0 6.217.025 8.403.122 2.032.09 3.13.431 3.86.715a6.434 6.434 0 0 1 2.39 1.553c.732.731 1.179 1.422 1.552 2.39.285.73.626 1.836.716 3.86.097 2.194.122 2.852.122 8.403 0 5.56-.025 6.217-.122 8.404-.09 2.032-.431 3.129-.715 3.86a6.435 6.435 0 0 1-1.553 2.39c-.731.731-1.422 1.178-2.39 1.552-.73.284-1.836.626-3.86.715-2.194.098-2.852.122-8.403.122-5.56 0-6.218-.024-8.404-.122-2.032-.09-3.129-.43-3.86-.715a6.434 6.434 0 0 1-2.39-1.552c-.731-.732-1.178-1.423-1.552-2.39-.284-.731-.626-1.837-.715-3.86-.098-2.195-.122-2.853-.122-8.404 0-5.559.024-6.217.122-8.403.09-2.032.43-3.13.715-3.86a6.434 6.434 0 0 1 1.552-2.39c.732-.732 1.423-1.179 2.39-1.553.731-.284 1.837-.625 3.86-.715 2.186-.097 2.845-.122 8.404-.122Zm0-3.746c-5.649 0-6.356.024-8.575.122-2.21.097-3.73.455-5.047.967-1.373.536-2.535 1.243-3.69 2.405C2.334 5.037 1.626 6.2 1.09 7.565.577 8.89.22 10.401.122 12.612.024 14.84 0 15.546 0 21.194c0 5.649.024 6.356.122 8.575.097 2.21.455 3.73.967 5.047.536 1.373 1.244 2.535 2.406 3.69a10.171 10.171 0 0 0 3.681 2.397c1.325.512 2.837.87 5.047.967 2.22.098 2.926.122 8.575.122 5.648 0 6.355-.024 8.574-.122 2.21-.097 3.73-.455 5.047-.967a10.17 10.17 0 0 0 3.681-2.398 10.17 10.17 0 0 0 2.398-3.681c.512-1.325.87-2.837.967-5.047.098-2.219.122-2.926.122-8.574 0-5.649-.024-6.356-.122-8.575-.097-2.21-.455-3.73-.967-5.047a9.745 9.745 0 0 0-2.381-3.698 10.17 10.17 0 0 0-3.682-2.397C33.11.974 31.6.616 29.388.519c-2.227-.106-2.934-.13-8.582-.13Z"/><path d="M20.806 10.508c-5.9 0-10.688 4.787-10.688 10.687 0 5.9 4.787 10.688 10.688 10.688 5.9 0 10.687-4.787 10.687-10.688 0-5.9-4.787-10.687-10.687-10.687Zm0 17.62a6.934 6.934 0 0 1 0-13.865 6.934 6.934 0 0 1 0 13.865ZM34.41 10.085a2.496 2.496 0 1 1-2.494-2.495 2.5 2.5 0 0 1 2.495 2.495Z"/></g><defs><clipPath id="aa"><path fill="#fff" transform="translate(0 .389)" d="M0 0h41.611v41.611H0z"/></clipPath></defs></svg><svg fill="none" viewBox="0 0 261 16" id="long-arrow-right" xmlns="http://www.w3.org/2000/svg"><path d="M260.707 8.707a1 1 0 0 0 0-1.414L254.343.929a1 1 0 1 0-1.414 1.414L258.586 8l-5.657 5.657a1 1 0 1 0 1.414 1.414l6.364-6.364ZM0 9h260V7H0v2Z" fill="#fff"/></svg><svg fill="none" viewBox="0 0 24 24" id="menu-btn" xmlns="http://www.w3.org/2000/svg"><path fill-rule="evenodd" clip-rule="evenodd" d="M22 12c0-.614-.497-1.111-1.111-1.111H3.11a1.111 1.111 0 0 0 0 2.222H20.89c.614 0 1.111-.497 1.111-1.11ZM22 18.89c0-.614-.497-1.112-1.111-1.112H3.11a1.111 1.111 0 0 0 0 2.222H20.89c.614 0 1.111-.497 1.111-1.11ZM22 5.111C22 4.497 21.503 4 20.889 4H3.11a1.111 1.111 0 0 0 0 2.222H20.89c.614 0 1.111-.497 1.111-1.11Z" fill="#505050"/></svg><svg fill="none" viewBox="0 0 24 24" id="phone-btn" xmlns="http://www.w3.org/2000/svg"><path fill-rule="evenodd" clip-rule="evenodd" d="M18.286 11.004c.086.545-.37.996-.922.996h-.122c-.552 0-.988-.454-1.116-.991a4.256 4.256 0 0 0-3.135-3.135C12.454 7.745 12 7.31 12 6.758v-.122c0-.552.45-1.008.996-.922a6.378 6.378 0 0 1 5.29 5.29Z" fill="#505050"/><path fill-rule="evenodd" clip-rule="evenodd" d="M21.95 11.001c.055.55-.398.999-.95.999-.552 0-.993-.45-1.062-.998a8.017 8.017 0 0 0-6.94-6.94C12.45 3.993 12 3.552 12 3s.449-1.005.999-.95c4.718.47 8.482 4.233 8.952 8.951ZM12.872 10.404c-.44-.24-.872.185-.872.687s.407.909.91.909c.501 0 .927-.431.686-.872a1.827 1.827 0 0 0-.724-.724Z" fill="#505050"/><path fill-rule="evenodd" clip-rule="evenodd" d="M5 5a1 1 0 0 0-1 1v4c0 5.514 4.486 10 10 10h4a1 1 0 0 0 1-1v-2a1 1 0 0 0-1-1h-2a1 1 0 0 0-1 1 1 1 0 0 1-1 1c-4.488 0-7.928-3.433-8-7.984A1 1 0 0 1 7 9a1 1 0 0 0 1-1V6a1 1 0 0 0-1-1H5Zm14 17h-5C7.383 22 2 16.617 2 10V5c0-1.103.897-2 2-2h4c1.103 0 2 .897 2 2v4a2 2 0 0 1-.853 1.637c-.49.346-.973.888-.77 1.453a5.844 5.844 0 0 0 3.535 3.553c.563.203 1.1-.282 1.44-.775A2 2 0 0 1 15 14h4c1.103 0 2 .897 2 2v4c0 1.103-.897 2-2 2Z" fill="#505050"/></svg><svg fill="none" viewBox="0 0 49 49" id="pinterest" xmlns="http://www.w3.org/2000/svg"><path d="M17.338 39.182c.047-.686.145-1.37.292-2.043a447.3 447.3 0 0 1 1.09-4.778l.014-.061.79-3.406c.162-.694.286-1.233.37-1.412a7.065 7.065 0 0 1-.58-2.906c0-2.73 1.544-4.845 3.544-4.845a2.486 2.486 0 0 1 1.924.87c.486.564.71 1.313.616 2.034 0 .924-.173 1.629-.925 4.154-.116.388-.228.776-.336 1.166-.1.353-.19.709-.272 1.066a2.619 2.619 0 0 0 .484 2.256 2.45 2.45 0 0 0 2.054.933c3.046 0 5.308-4.053 5.308-9.286 0-4.022-2.634-6.684-7.007-6.684a7.918 7.918 0 0 0-5.919 2.34 8.432 8.432 0 0 0-2.44 6.045 5.212 5.212 0 0 0 1.046 3.357c.37.285.51.782.357 1.204a54.17 54.17 0 0 1-.361 1.389.837.837 0 0 1-.44.606.792.792 0 0 1-.724.004c-2.368-.978-3.667-3.63-3.667-7.023 0-6.095 5.086-11.4 12.642-11.4 6.4 0 11.19 4.754 11.19 10.493 0 7.211-3.944 12.463-9.575 12.463a5.122 5.122 0 0 1-4.177-1.958l-.088.361-.422 1.74-.005.016a316.483 316.483 0 0 1-.588 2.395c-.216.724-.49 1.435-.816 2.123a16.333 16.333 0 1 0-3.38-1.213Zm7.162 5.735c-11.276 0-20.417-9.14-20.417-20.416 0-11.277 9.14-20.417 20.417-20.417 11.276 0 20.417 9.14 20.417 20.417 0 11.276-9.141 20.416-20.417 20.416Z" fill="#fff"/></svg><svg fill="none" viewBox="0 0 18 18" id="right-arrow" xmlns="http://www.w3.org/2000/svg"><path fill-rule="evenodd" clip-rule="evenodd" d="M11.062 14.444c.32.306.83.292 1.132-.032l4.418-4.73a1 1 0 0 0 0-1.365l-4.418-4.729a.796.796 0 0 0-1.171 1.08l3.327 3.66a1 1 0 0 1 0 1.345l-3.327 3.66a.796.796 0 0 0 .04 1.111Z" fill="#fff"/><path fill-rule="evenodd" clip-rule="evenodd" d="M.75 9c0 .46.373.833.833.833h13.334a.833.833 0 0 0 0-1.667H1.583A.833.833 0 0 0 .75 9Z" fill="#fff"/></svg><svg fill="none" viewBox="0 0 455 16" id="right-long-arrow" xmlns="http://www.w3.org/2000/svg"><path d="M454.707 8.707a1 1 0 0 0 0-1.414L448.343.929a1 1 0 1 0-1.414 1.414L452.586 8l-5.657 5.657a1 1 0 1 0 1.414 1.414l6.364-6.364ZM0 9h454V7H0v2Z" fill="#fff"/></svg><svg fill="none" viewBox="0 0 24 24" id="tg" xmlns="http://www.w3.org/2000/svg"><path fill-rule="evenodd" clip-rule="evenodd" d="M3.375 10.888c5.369-2.258 8.949-3.747 10.74-4.466 5.114-2.053 6.177-2.41 6.87-2.422.152-.002.493.034.713.207a.74.74 0 0 1 .262.481c.025.139.055.454.031.7-.277 2.811-1.476 9.633-2.086 12.781-.259 1.333-.767 1.78-1.259 1.823-1.07.095-1.881-.682-2.917-1.338-1.621-1.025-2.537-1.664-4.11-2.665-1.818-1.156-.64-1.792.396-2.831.272-.272 4.984-4.41 5.075-4.785.011-.047.022-.222-.086-.314-.108-.092-.266-.06-.381-.036-.163.036-2.752 1.688-7.768 4.957-.735.487-1.4.724-1.997.712-.658-.014-1.923-.359-2.863-.654-1.153-.362-2.07-.553-1.99-1.168.041-.32.498-.647 1.37-.982Z" fill="#fff"/></svg><svg fill="none" viewBox="0 0 24 24" id="vk" xmlns="http://www.w3.org/2000/svg"><path fill-rule="evenodd" clip-rule="evenodd" d="M21.494 18h-2.565c-.838 0-.943-.626-2.479-2.128-1.295-1.31-1.85-1.413-2.163-1.413-.28 0-.472.215-.472.715v2.003c0 .591-.332.823-1.692.823-2.235 0-4.713-1.413-6.598-4.024C2.715 10.096 2 7.198 2 6.572c0-.34.245-.572.576-.572h2.286c.594 0 .82.18 1.03.823 1.047 3.148 2.915 5.92 3.7 5.92.296 0 .331-.25.331-.895V8.647c0-1.551-.855-1.68-.855-2.253 0-.227.175-.394.454-.394h3.665c.489 0 .558.18.558.787v4.346c0 .495.1.68.314.68.267 0 .513-.166.995-.716 1.504-1.7 2.74-4.4 2.74-4.4.157-.339.35-.572.873-.572h2.286c.454 0 .646.251.559.698-.263 1.252-2.898 5.061-2.898 5.061-.244.393-.349.608 0 .984.245.321 1.013 1.018 1.484 1.662C21.249 15.782 22 16.838 22 17.428c0 .447-.244.572-.506.572Z" fill="#fff"/></svg><svg fill="none" viewBox="0 0 43 42" id="wt" xmlns="http://www.w3.org/2000/svg"><path d="m.903 42 2.925-10.685a20.576 20.576 0 0 1-2.752-10.31C1.081 9.64 10.331.39 21.696.39a20.488 20.488 0 0 1 14.587 6.047 20.5 20.5 0 0 1 6.034 14.588c-.005 11.37-9.255 20.619-20.62 20.619a20.632 20.632 0 0 1-9.862-2.51L.902 42Zm11.438-6.6c2.906 1.725 5.68 2.758 9.348 2.76 9.446 0 17.141-7.688 17.146-17.139.004-9.47-7.655-17.147-17.132-17.15-9.452 0-17.142 7.687-17.145 17.136-.002 3.858 1.128 6.746 3.027 9.768L5.853 37.1l6.488-1.7Zm19.743-9.474c-.129-.215-.472-.343-.989-.602-.514-.258-3.048-1.505-3.52-1.676-.473-.172-.816-.259-1.16.258-.344.515-1.332 1.677-1.632 2.02-.3.343-.602.387-1.117.128-.515-.258-2.176-.8-4.144-2.557-1.53-1.366-2.566-3.053-2.866-3.57-.3-.515-.031-.794.226-1.05.232-.231.515-.602.773-.904.262-.298.347-.513.52-.858.172-.343.087-.645-.043-.904-.13-.256-1.16-2.793-1.588-3.824-.42-1.004-.845-.869-1.16-.885l-.989-.017c-.343 0-.901.128-1.373.645-.471.517-1.803 1.762-1.803 4.298 0 2.537 1.847 4.987 2.103 5.33.259.343 3.633 5.548 8.801 7.78 1.23.53 2.19.847 2.937 1.085 1.235.392 2.358.336 3.246.204.99-.147 3.048-1.246 3.478-2.45.43-1.204.43-2.236.3-2.451Z" fill="#fff"/></svg><svg fill="none" viewBox="0 0 24 24" id="youtube" xmlns="http://www.w3.org/2000/svg"><path fill-rule="evenodd" clip-rule="evenodd" d="M10.182 14.741V9.26l5.315 2.74-5.315 2.742ZM21.896 8.42c-.033-.827-.248-1.638-.819-2.304-.702-.818-1.681-.89-2.646-.928-2.145-.082-4.292-.119-6.934-.188-1.924.076-4.344.152-6.76.274-1.09.055-1.909.598-2.273 1.641a6.117 6.117 0 0 0-.349 1.72 101.464 101.464 0 0 0-.11 5.45c.01.883.15 1.776.33 2.644.23 1.107.968 1.786 2.1 1.967.714.114 1.44.174 2.163.2 4.13.146 8.261.156 12.39-.082 1.409-.08 2.39-.789 2.712-2.144.171-.724.294-1.479.298-2.22.01-2.01-.022-4.022-.102-6.03Z" fill="#fff"/></svg></svg>