<?xml version="1.0" encoding="utf-8"?><svg viewBox="0 0 24 24" xmlns="http://www.w3.org/2000/svg" xmlns:xlink="http://www.w3.org/1999/xlink"><style>:root>svg{display:none}:root>svg:target{display:block}</style><svg fill="none" viewBox="0 0 24 24" id="menu-btn" xmlns="http://www.w3.org/2000/svg">
    <path fill-rule="evenodd" clip-rule="evenodd" d="M22 12c0-.614-.497-1.111-1.111-1.111H3.11a1.111 1.111 0 0 0 0 2.222H20.89c.614 0 1.111-.497 1.111-1.11ZM22 18.89c0-.614-.497-1.112-1.111-1.112H3.11a1.111 1.111 0 0 0 0 2.222H20.89c.614 0 1.111-.497 1.111-1.11ZM22 5.111C22 4.497 21.503 4 20.889 4H3.11a1.111 1.111 0 0 0 0 2.222H20.89c.614 0 1.111-.497 1.111-1.11Z" fill="#505050"/>
</svg><svg fill="none" viewBox="0 0 24 24" id="phone-btn" xmlns="http://www.w3.org/2000/svg">
    <path fill-rule="evenodd" clip-rule="evenodd" d="M18.286 11.004c.086.545-.37.996-.922.996h-.122c-.552 0-.988-.454-1.116-.991a4.256 4.256 0 0 0-3.135-3.135C12.454 7.745 12 7.31 12 6.758v-.122c0-.552.45-1.008.996-.922a6.378 6.378 0 0 1 5.29 5.29Z" fill="#505050"/>
    <path fill-rule="evenodd" clip-rule="evenodd" d="M21.95 11.001c.055.55-.398.999-.95.999-.552 0-.993-.45-1.062-.998a8.017 8.017 0 0 0-6.94-6.94C12.45 3.993 12 3.552 12 3s.449-1.005.999-.95c4.718.47 8.482 4.233 8.952 8.951ZM12.872 10.404c-.44-.24-.872.185-.872.687s.407.909.91.909c.501 0 .927-.431.686-.872a1.827 1.827 0 0 0-.724-.724Z" fill="#505050"/>
    <path fill-rule="evenodd" clip-rule="evenodd" d="M5 5a1 1 0 0 0-1 1v4c0 5.514 4.486 10 10 10h4a1 1 0 0 0 1-1v-2a1 1 0 0 0-1-1h-2a1 1 0 0 0-1 1 1 1 0 0 1-1 1c-4.488 0-7.928-3.433-8-7.984A1 1 0 0 1 7 9a1 1 0 0 0 1-1V6a1 1 0 0 0-1-1H5Zm14 17h-5C7.383 22 2 16.617 2 10V5c0-1.103.897-2 2-2h4c1.103 0 2 .897 2 2v4a2 2 0 0 1-.853 1.637c-.49.346-.973.888-.77 1.453a5.844 5.844 0 0 0 3.535 3.553c.563.203 1.1-.282 1.44-.775A2 2 0 0 1 15 14h4c1.103 0 2 .897 2 2v4c0 1.103-.897 2-2 2Z" fill="#505050"/>
</svg><svg fill="none" viewBox="0 0 18 18" id="right-arrow" xmlns="http://www.w3.org/2000/svg">
    <path fill-rule="evenodd" clip-rule="evenodd" d="M11.062 14.444c.32.306.83.292 1.132-.032l4.418-4.73a1 1 0 0 0 0-1.365l-4.418-4.729a.796.796 0 0 0-1.171 1.08l3.327 3.66a1 1 0 0 1 0 1.345l-3.327 3.66a.796.796 0 0 0 .04 1.111Z" fill="#fff"/>
    <path fill-rule="evenodd" clip-rule="evenodd" d="M.75 9c0 .46.373.833.833.833h13.334a.833.833 0 0 0 0-1.667H1.583A.833.833 0 0 0 .75 9Z" fill="#fff"/>
</svg><svg fill="none" viewBox="0 0 24 24" id="tg" xmlns="http://www.w3.org/2000/svg">
    <path fill-rule="evenodd" clip-rule="evenodd" d="M3.375 10.888c5.369-2.258 8.949-3.747 10.74-4.466 5.114-2.053 6.177-2.41 6.87-2.422.152-.002.493.034.713.207a.74.74 0 0 1 .262.481c.025.139.055.454.031.7-.277 2.811-1.476 9.633-2.086 12.781-.259 1.333-.767 1.78-1.259 1.823-1.07.095-1.881-.682-2.917-1.338-1.621-1.025-2.537-1.664-4.11-2.665-1.818-1.156-.64-1.792.396-2.831.272-.272 4.984-4.41 5.075-4.785.011-.047.022-.222-.086-.314-.108-.092-.266-.06-.381-.036-.163.036-2.752 1.688-7.768 4.957-.735.487-1.4.724-1.997.712-.658-.014-1.923-.359-2.863-.654-1.153-.362-2.07-.553-1.99-1.168.041-.32.498-.647 1.37-.982Z" fill="#fff"/>
</svg><svg fill="none" viewBox="0 0 24 24" id="vk" xmlns="http://www.w3.org/2000/svg">
    <path fill-rule="evenodd" clip-rule="evenodd" d="M21.494 18h-2.565c-.838 0-.943-.626-2.479-2.128-1.295-1.31-1.85-1.413-2.163-1.413-.28 0-.472.215-.472.715v2.003c0 .591-.332.823-1.692.823-2.235 0-4.713-1.413-6.598-4.024C2.715 10.096 2 7.198 2 6.572c0-.34.245-.572.576-.572h2.286c.594 0 .82.18 1.03.823 1.047 3.148 2.915 5.92 3.7 5.92.296 0 .331-.25.331-.895V8.647c0-1.551-.855-1.68-.855-2.253 0-.227.175-.394.454-.394h3.665c.489 0 .558.18.558.787v4.346c0 .495.1.68.314.68.267 0 .513-.166.995-.716 1.504-1.7 2.74-4.4 2.74-4.4.157-.339.35-.572.873-.572h2.286c.454 0 .646.251.559.698-.263 1.252-2.898 5.061-2.898 5.061-.244.393-.349.608 0 .984.245.321 1.013 1.018 1.484 1.662C21.249 15.782 22 16.838 22 17.428c0 .447-.244.572-.506.572Z" fill="#fff"/>
</svg><svg fill="none" viewBox="0 0 24 24" id="youtube" xmlns="http://www.w3.org/2000/svg">
    <path fill-rule="evenodd" clip-rule="evenodd" d="M10.182 14.741V9.26l5.315 2.74-5.315 2.742ZM21.896 8.42c-.033-.827-.248-1.638-.819-2.304-.702-.818-1.681-.89-2.646-.928-2.145-.082-4.292-.119-6.934-.188-1.924.076-4.344.152-6.76.274-1.09.055-1.909.598-2.273 1.641a6.117 6.117 0 0 0-.349 1.72 101.464 101.464 0 0 0-.11 5.45c.01.883.15 1.776.33 2.644.23 1.107.968 1.786 2.1 1.967.714.114 1.44.174 2.163.2 4.13.146 8.261.156 12.39-.082 1.409-.08 2.39-.789 2.712-2.144.171-.724.294-1.479.298-2.22.01-2.01-.022-4.022-.102-6.03Z" fill="#fff"/>
</svg></svg>