<svg width="49" height="49" viewBox="0 0 49 49" fill="none" xmlns="http://www.w3.org/2000/svg">
<path d="M17.3378 39.1823C17.3847 38.4963 17.4827 37.8123 17.6297 37.1386C17.7583 36.5363 18.1483 34.8315 18.72 32.3611L18.7343 32.2998L19.5244 28.8943C19.6857 28.2002 19.8102 27.6612 19.8939 27.4815C19.4975 26.5649 19.2998 25.5747 19.3141 24.5762C19.3141 21.8465 20.8576 19.7313 22.8584 19.7313C23.5934 19.7191 24.2958 20.0376 24.7817 20.6011C25.2676 21.1646 25.4922 21.9139 25.3983 22.6346C25.3983 23.5594 25.2247 24.2638 24.4734 26.7894C24.357 27.1768 24.2447 27.5654 24.1365 27.9552C24.0375 28.3082 23.9469 28.6635 23.865 29.0209C23.669 29.809 23.8486 30.6481 24.3488 31.2769C24.5914 31.5857 24.9046 31.8316 25.262 31.9939C25.6195 32.1563 26.0107 32.2304 26.4028 32.21C29.4489 32.21 31.7111 28.1573 31.7111 22.9245C31.7111 18.9024 29.0773 16.2401 24.7041 16.2401C23.6093 16.1994 22.518 16.3863 21.4992 16.789C20.4804 17.1918 19.5563 17.8016 18.7853 18.5798C17.9977 19.3751 17.3764 20.3193 16.9575 21.3572C16.5387 22.3951 16.3306 23.506 16.3455 24.6252C16.2947 25.8313 16.6642 27.0177 17.3908 27.9817C17.7604 28.2675 17.9013 28.7637 17.7481 29.1863C17.6644 29.5293 17.4623 30.3133 17.3868 30.5746C17.3657 30.7028 17.315 30.8244 17.2388 30.9296C17.1626 31.0348 17.063 31.1209 16.9478 31.181C16.836 31.2393 16.712 31.2701 16.5859 31.2708C16.4598 31.2715 16.3354 31.2421 16.223 31.1851C13.8547 30.2071 12.5562 27.555 12.5562 24.1617C12.5562 18.0674 17.642 12.7611 25.1982 12.7611C31.5988 12.7611 36.3885 17.5161 36.3885 23.2552C36.3885 30.4664 32.444 35.7176 26.8131 35.7176C26.0122 35.7408 25.217 35.5757 24.4915 35.2357C23.766 34.8956 23.1304 34.39 22.6359 33.7596L22.5481 34.121L22.1255 35.8605L22.1214 35.8768C21.8233 37.1018 21.615 37.9532 21.5334 38.2717C21.317 38.9965 21.0434 39.707 20.7167 40.395C24.7792 41.3632 29.0583 40.7385 32.6744 38.6492C36.2905 36.5599 38.969 33.1648 40.1592 29.1617C41.3494 25.1586 40.9611 20.8516 39.0739 17.126C37.1868 13.4005 33.9442 10.5393 30.0126 9.13057C26.0811 7.72187 21.7593 7.87267 17.9355 9.55199C14.1117 11.2313 11.0765 14.3115 9.45358 18.1596C7.8307 22.0077 7.74348 26.3312 9.20986 30.2416C10.6762 34.152 13.5848 37.3501 17.3378 39.1823ZM24.4999 44.9173C13.2238 44.9173 4.08325 35.7768 4.08325 24.5007C4.08325 13.2245 13.2238 4.08398 24.4999 4.08398C35.776 4.08398 44.9166 13.2245 44.9166 24.5007C44.9166 35.7768 35.776 44.9173 24.4999 44.9173Z" fill="white"/>
</svg>
