<svg width="24" height="24" viewBox="0 0 24 24" fill="none" xmlns="http://www.w3.org/2000/svg">
<path fill-rule="evenodd" clip-rule="evenodd" d="M21.494 18H18.9286C18.091 18 17.9858 17.3743 16.4501 15.8721C15.155 14.5625 14.6006 14.4589 14.2867 14.4589C14.0071 14.4589 13.815 14.674 13.815 15.1743V17.1774C13.815 17.768 13.4834 18 12.1227 18C9.88828 18 7.41037 16.5875 5.52534 13.9762C2.71583 10.0953 2 7.19812 2 6.57241C2 6.2326 2.24472 6 2.57633 6H4.86212C5.45559 6 5.68258 6.17929 5.89183 6.82257C6.93867 9.97052 8.80656 12.7423 9.59155 12.7423C9.88828 12.7423 9.92316 12.4922 9.92316 11.8483V8.64701C9.92316 7.09575 9.06842 6.96613 9.06842 6.39372C9.06842 6.16657 9.2428 6 9.5218 6H13.1866C13.6755 6 13.7452 6.17929 13.7452 6.78684V11.1329C13.7452 11.6284 13.8445 11.8125 14.0591 11.8125C14.3263 11.8125 14.5716 11.6472 15.0539 11.0972C16.5583 9.3963 17.7943 6.69779 17.7943 6.69779C17.9509 6.35798 18.1436 6.12538 18.6668 6.12538H20.9526C21.4071 6.12538 21.5986 6.37615 21.5117 6.82257C21.2493 8.0746 18.6142 11.884 18.6142 11.884C18.37 12.2771 18.2654 12.4922 18.6142 12.8677C18.8589 13.1893 19.6267 13.8865 20.0978 14.5304C21.2493 15.7824 22 16.8376 22 17.4282C22 17.8746 21.7559 18 21.494 18Z" fill="white"/>
</svg>
